<svg width="18" height="18" viewBox="0 0 18 18" fill="none" xmlns="http://www.w3.org/2000/svg">
<g clip-path="url(#clip0_420_16)">
<path d="M16.5 5.25H11.25V3.75H16.5V5.25ZM17.7945 12.75C17.463 13.7228 16.2728 15 13.9688 15C11.6633 15 9.79575 13.7032 9.79575 10.7437C9.79575 7.81125 11.5395 6.30375 13.8953 6.30375C16.2068 6.30375 17.6183 7.64025 17.9265 9.62325C17.985 10.0028 18.0082 10.5142 17.9977 11.2282H11.9775C12.075 13.6365 14.5898 13.7122 15.4185 12.75H17.7945ZM12.03 9.75H15.7537C15.675 8.58975 14.9017 8.08575 13.896 8.08575C12.7965 8.08575 12.1883 8.66175 12.03 9.75ZM4.8495 14.991H0V3.76575H5.21475C9.32175 3.8265 9.39975 7.84875 7.25475 8.94525C9.8505 9.89025 9.9375 14.991 4.8495 14.991V14.991ZM2.25 8.25H4.938C6.819 8.25 7.1175 6 4.704 6H2.25V8.25ZM4.79325 10.5H2.25V12.762H4.75575C7.047 12.762 6.90675 10.5 4.79325 10.5V10.5Z" fill="#F2F2E8"/>
</g>
<defs>
<clipPath id="clip0_420_16">
<rect width="18" height="18" fill="white"/>
</clipPath>
</defs>
</svg>
