<svg width="17" height="17" viewBox="0 0 17 17" fill="none" xmlns="http://www.w3.org/2000/svg">
<path fill-rule="evenodd" clip-rule="evenodd" d="M0.708374 2.01041C0.708374 1.66512 0.84554 1.33398 1.0897 1.08982C1.33385 0.845664 1.665 0.708498 2.01029 0.708498H14.9884C15.1595 0.708218 15.329 0.741692 15.4871 0.807003C15.6453 0.872314 15.789 0.96818 15.9101 1.08911C16.0312 1.21004 16.1272 1.35366 16.1927 1.51175C16.2581 1.66985 16.2918 1.8393 16.2917 2.01041V14.9885C16.2919 15.1596 16.2583 15.3292 16.1929 15.4873C16.1276 15.6455 16.0316 15.7892 15.9106 15.9103C15.7897 16.0313 15.646 16.1273 15.4879 16.1928C15.3297 16.2583 15.1602 16.2919 14.9891 16.2918H2.01029C1.83926 16.2918 1.66991 16.2581 1.51191 16.1927C1.3539 16.1272 1.21035 16.0312 1.08945 15.9103C0.968543 15.7893 0.872659 15.6457 0.807273 15.4876C0.741888 15.3296 0.708281 15.1602 0.708374 14.9892V2.01041ZM6.87654 6.65H8.98667V7.70966C9.29125 7.1005 10.0704 6.55225 11.2413 6.55225C13.486 6.55225 14.018 7.76562 14.018 9.99191V14.1158H11.7463V10.4991C11.7463 9.23116 11.4418 8.51575 10.6683 8.51575C9.59513 8.51575 9.14888 9.28712 9.14888 10.4991V14.1158H6.87654V6.65ZM2.98071 14.0188H5.25304V6.55225H2.98071V14.0181V14.0188ZM5.57817 4.117C5.58245 4.31156 5.54783 4.50501 5.47634 4.68601C5.40484 4.86701 5.29792 5.03191 5.16183 5.17102C5.02575 5.31013 4.86324 5.42067 4.68386 5.49613C4.50448 5.57159 4.31184 5.61046 4.11723 5.61046C3.92262 5.61046 3.72998 5.57159 3.55059 5.49613C3.37121 5.42067 3.20871 5.31013 3.07263 5.17102C2.93654 5.03191 2.82962 4.86701 2.75812 4.68601C2.68663 4.50501 2.65201 4.31156 2.65629 4.117C2.6647 3.7351 2.82231 3.37168 3.09538 3.10457C3.36844 2.83745 3.73524 2.68788 4.11723 2.68788C4.49922 2.68788 4.86602 2.83745 5.13908 3.10457C5.41214 3.37168 5.56976 3.7351 5.57817 4.117V4.117Z" fill="#F2F2E8"/>
</svg>
