<svg width="44" height="44" viewBox="0 0 44 44" fill="none" xmlns="http://www.w3.org/2000/svg">
<path fill-rule="evenodd" clip-rule="evenodd" d="M13.1615 8.63206H5.93739V5.9375H15.3683L16.7156 7.28478V16.7157H14.0211V11.3266C11.606 13.1387 9.86958 15.7094 9.09041 18.6264C8.31125 21.5435 8.5345 24.6377 9.72434 27.4126C10.9142 30.1876 13.0017 32.4824 15.6518 33.929C18.302 35.3756 21.3613 35.8901 24.3389 35.3899C27.3165 34.8896 30.0397 33.4038 32.0717 31.1706C34.1038 28.9375 35.3268 26.0865 35.5445 23.075C35.7623 20.0636 34.9623 17.0663 33.2727 14.564C31.5831 12.0617 29.102 10.1995 26.2274 9.27606L27.0412 6.70545C30.5296 7.82403 33.5347 10.0942 35.5642 13.144C37.5937 16.1939 38.5273 19.8426 38.2119 23.4923C37.8966 27.1421 36.3511 30.5766 33.8285 33.2332C31.306 35.8897 27.956 37.6108 24.3274 38.1145C20.6988 38.6182 17.0068 37.8746 13.856 36.0055C10.7053 34.1365 8.28278 31.2528 6.98528 27.8268C5.68777 24.4009 5.59224 20.6359 6.71434 17.1486C7.83643 13.6613 10.1096 10.6585 13.1615 8.63206Z" fill="black"/>
</svg>
