<svg width="17" height="14" viewBox="0 0 17 14" fill="none" xmlns="http://www.w3.org/2000/svg">
<path d="M16.9344 1.63297C16.3116 1.90892 15.6427 2.09537 14.9394 2.17965C15.665 1.74543 16.2079 1.06203 16.4668 0.256946C15.785 0.661915 15.0388 0.946968 14.2607 1.09971C13.7374 0.541 13.0443 0.170675 12.289 0.0462347C11.5337 -0.0782057 10.7584 0.0502006 10.0836 0.411518C9.4087 0.772835 8.87201 1.34685 8.55681 2.04444C8.24162 2.74203 8.16555 3.52416 8.34041 4.26942C6.95894 4.20005 5.60748 3.84099 4.37376 3.21551C3.14003 2.59004 2.05161 1.71215 1.17913 0.638802C0.880804 1.15341 0.709267 1.75006 0.709267 2.3855C0.708934 2.95753 0.849802 3.5208 1.11937 4.02534C1.38894 4.52987 1.77888 4.96007 2.25459 5.27776C1.70289 5.2602 1.16337 5.11113 0.680926 4.84295V4.8877C0.680871 5.69 0.958393 6.46761 1.4664 7.08859C1.97441 7.70956 2.68162 8.13566 3.46803 8.29457C2.95624 8.43308 2.41967 8.45348 1.89884 8.35423C2.12071 9.04457 2.55291 9.64824 3.13492 10.0807C3.71693 10.5132 4.41962 10.7529 5.14461 10.7662C3.9139 11.7323 2.39397 12.2564 0.829343 12.2541C0.552185 12.2542 0.275261 12.238 0 12.2056C1.58819 13.2268 3.43695 13.7687 5.3251 13.7666C11.7167 13.7666 15.2108 8.47282 15.2108 3.8816C15.2108 3.73243 15.2071 3.58178 15.2004 3.43262C15.88 2.94111 16.4667 2.33246 16.9329 1.63521L16.9344 1.63297V1.63297Z" fill="#F2F2E8"/>
</svg>
